<?xml version="1.0" encoding="UTF-8"?>
<svg version="1.1" xmlns="http://www.w3.org/2000/svg" width="858" height="968">
<rect width="858" height="968" fill="#FFFFFF" rx="0"/>
<path d="M0 0 C0.8146875 0.13792969 1.629375 0.27585937 2.46875 0.41796875 C13.71217421 2.27114376 24.9683124 3.8227068 36.3046875 4.98046875 C37.1283783 5.06484695 37.95206909 5.14922516 38.80072021 5.23616028 C42.94354986 5.6580093 47.0871629 6.06881922 51.23242188 6.46606445 C60.97818394 7.4248943 70.43685807 8.86656064 80 11 C80 11.66 80 12.32 80 13 C81.34191406 13.03867187 81.34191406 13.03867187 82.7109375 13.078125 C89.62047011 13.40223954 95.27586145 14.08883444 101.57421875 16.96484375 C104.1875627 18.08003883 106.74191518 18.76244427 109.5 19.4375 C115.1164545 20.90471986 119.92168455 23.22717745 125 26 C125.94359375 26.50015625 126.8871875 27.0003125 127.859375 27.515625 C132.74329407 30.12918169 137.45198173 32.826964 142 36 C143.34384766 36.86431641 143.34384766 36.86431641 144.71484375 37.74609375 C148.41672145 40.28590758 151.82997258 43.03554877 155.25 45.9375 C155.87390625 46.44990234 156.4978125 46.96230469 157.140625 47.49023438 C160.54531154 50.37761401 162.78530441 52.54338038 164 57 C164.66 57 165.32 57 166 57 C174.50592077 66.42547978 176.8803018 79.07999956 176.29296875 91.37890625 C175.37633428 102.70850824 175.37633428 102.70850824 172.2890625 105.60546875 C169.63264535 107.22379797 167.09860126 108.09203015 164.125 109 C159.84573494 110.35518747 155.99838557 111.94954586 152 114 C151.01 114 150.02 114 149 114 C149 114.66 149 115.32 149 116 C148.2884375 116.26039063 147.576875 116.52078125 146.84375 116.7890625 C143.83577502 118.06993097 141.24826239 119.60715706 138.5 121.375 C137.5821875 121.96023438 136.664375 122.54546875 135.71875 123.1484375 C132.94779251 124.96658405 132.94779251 124.96658405 130.390625 127.20703125 C127.16709546 129.6246784 124.92847788 129.37773826 121 129 C120.67 128.67 120.34 128.34 120 128 C118.17118904 127.70014625 116.33654532 127.43561913 114.5 127.1875 C108.79317047 126.28391866 104.10986985 124.63735218 99 122 C98.2575 121.62875 97.515 121.2575 96.75 120.875 C96.1725 120.58625 95.595 120.2975 95 120 C95 119.34 95 118.68 95 118 C93.7934375 117.9071875 93.7934375 117.9071875 92.5625 117.8125 C87.8364549 116.73463007 84.12486573 114.48408581 80 112 C80 111.34 80 110.68 80 110 C79.15308594 109.77828125 78.30617188 109.5565625 77.43359375 109.328125 C73.31359049 107.73449461 70.44804042 105.53066583 67.0625 102.75 C66.4449585 102.25201904 65.82741699 101.75403809 65.19116211 101.2409668 C63.45403865 99.83533617 61.72667915 98.41841991 60 97 C59.2678125 96.41347656 58.535625 95.82695312 57.78125 95.22265625 C54.11265765 92.21274298 51.02517315 88.88871983 47.95703125 85.2734375 C45.65770341 82.60236205 43.2677017 80.02516258 40.875 77.4375 C31 66.59908537 31 66.59908537 31 63 C30.34 63 29.68 63 29 63 C28.70867187 62.46632813 28.41734375 61.93265625 28.1171875 61.3828125 C25.84187669 57.24718468 23.51299372 53.15958597 21.0625 49.125 C18.36491147 44.66600405 15.84802728 40.12830681 13.38671875 35.53515625 C12.21428007 33.39174019 10.97364325 31.32547305 9.6875 29.25 C7.7896003 25.59478576 7.33131603 23.05862137 7 19 C6.34 19 5.68 19 5 19 C4.49307308 17.4188708 3.99473557 15.83498617 3.5 14.25 C3.2215625 13.36828125 2.943125 12.4865625 2.65625 11.578125 C2 9 2 9 2 5 C1.34 5 0.68 5 0 5 C0 3.35 0 1.7 0 0 Z " fill="#F2F4F4" transform="translate(275,357)"/>
<path d="M0 0 C3.16871953 2.52857417 5.82216556 5.32903043 8.109375 8.671875 C8.109375 9.661875 8.109375 10.651875 8.109375 11.671875 C9.03556641 11.61966797 9.03556641 11.61966797 9.98046875 11.56640625 C19.04320107 11.27672987 27.45730707 13.68059808 35.109375 18.671875 C36.099375 20.156875 36.099375 20.156875 37.109375 21.671875 C36.11679687 21.92710937 35.12421875 22.18234375 34.1015625 22.4453125 C22.3830913 25.80943872 9.97064059 32.37997661 3.109375 42.671875 C2.449375 42.671875 1.789375 42.671875 1.109375 42.671875 C0.738125 43.72375 0.738125 43.72375 0.359375 44.796875 C-0.890625 47.671875 -0.890625 47.671875 -2.890625 50.609375 C-4.84721779 53.60540771 -5.91256894 56.24867879 -6.890625 59.671875 C-7.550625 59.671875 -8.210625 59.671875 -8.890625 59.671875 C-11.83860846 78.28102058 -12.58369318 96.79271565 -6.859375 114.94140625 C-2.66503552 131.09299578 -3.68401002 149.02751209 -3.640625 165.609375 C-3.63544861 166.52756012 -3.63027222 167.44574524 -3.62493896 168.39175415 C-3.54079603 187.32158989 -3.54079603 187.32158989 -5.890625 195.671875 C-6.10912109 196.52547607 -6.32761719 197.37907715 -6.55273438 198.25854492 C-7.25475565 200.94922135 -8.00325835 203.62272737 -8.765625 206.296875 C-9.00925781 207.18632813 -9.25289062 208.07578125 -9.50390625 208.9921875 C-10.90928771 213.94379056 -12.57322652 218.45149461 -15.00341797 222.99365234 C-16.14514632 225.15332232 -17.03359247 227.38645492 -17.890625 229.671875 C-18.550625 229.671875 -19.210625 229.671875 -19.890625 229.671875 C-19.75785156 228.94484375 -19.62507812 228.2178125 -19.48828125 227.46875 C-16.98197312 213.19925848 -14.39458277 196.70790649 -18.890625 182.671875 C-19.15101563 181.65867187 -19.41140625 180.64546875 -19.6796875 179.6015625 C-23.43732642 165.87037729 -32.31880489 150.3130634 -44.890625 142.671875 C-45.92058594 142.3728125 -46.95054687 142.07375 -48.01171875 141.765625 C-52.05321798 140.35988614 -55.30600066 139.13834543 -57.890625 135.671875 C-60.44012016 128.12144703 -60.7079671 119.92770554 -61.47070312 112.04394531 C-62.15755759 106.52834422 -63.67355271 101.34635509 -65.31835938 96.0534668 C-66.3545756 92.70169957 -66.890625 90.23273434 -66.890625 86.671875 C-67.550625 86.671875 -68.210625 86.671875 -68.890625 86.671875 C-69.28894531 85.45371094 -69.68726563 84.23554688 -70.09765625 82.98046875 C-70.63264956 81.35671714 -71.16781496 79.73302222 -71.703125 78.109375 C-71.96416016 77.30951172 -72.22519531 76.50964844 -72.49414062 75.68554688 C-73.69827467 72.04341304 -74.93085159 68.4836059 -76.515625 64.98828125 C-80.5834084 55.17706504 -82.11437566 39.03945711 -78.890625 28.671875 C-78.230625 28.671875 -77.570625 28.671875 -76.890625 28.671875 C-76.81585938 28.05441406 -76.74109375 27.43695313 -76.6640625 26.80078125 C-75.58094026 19.82419973 -73.17604994 15.2215003 -68.890625 9.671875 C-68.1275 8.640625 -67.364375 7.609375 -66.578125 6.546875 C-62.08331416 1.73847271 -57.38393616 -2.77939214 -50.890625 -4.328125 C-50.560625 -4.988125 -50.230625 -5.648125 -49.890625 -6.328125 C-33.07236941 -12.95810641 -14.54357113 -10.21655823 0 0 Z " fill="#F2F3F3" transform="translate(566.890625,329.328125)"/>
<path d="M0 0 C0.33 0 0.66 0 1 0 C1.33 2.97 1.66 5.94 2 9 C2.99 9 3.98 9 5 9 C3.40109514 14.19644079 1.25861997 19.06612142 -1 24 C-1.66 24 -2.32 24 -3 24 C-2.86722656 23.27296875 -2.73445312 22.5459375 -2.59765625 21.796875 C-1.32340655 14.54202272 -0.49508139 7.34805008 0 0 Z " fill="#AEB8C1" transform="translate(550,535)"/>
<path d="M0 0 C11.64548199 0.36352958 22.64550828 1.30139883 34 4 C34 4.33 34 4.66 34 5 C22.39819322 4.6105875 11.34918466 3.45847461 0 1 C0 0.67 0 0.34 0 0 Z " fill="#94A1AC" transform="translate(321,364)"/>
<path d="M0 0 C-4.01923009 4.01923009 -11.15147876 3.05480296 -16.5625 3.0625 C-18.04172942 3.04673956 -19.52094768 3.02779013 -21 3 C-20.67 2.34 -20.34 1.68 -20 1 C-13.43983174 -0.49094733 -6.69023716 -0.09054456 0 0 Z " fill="#2A3F58" transform="translate(224,409)"/>
<path d="M0 0 C4.62 0 9.24 0 14 0 C14 0.99 14 1.98 14 3 C12.23086176 3.22226864 10.45955629 3.42733873 8.6875 3.625 C7.70136719 3.74101563 6.71523437 3.85703125 5.69921875 3.9765625 C3 4 3 4 0 2 C0 1.34 0 0.68 0 0 Z " fill="#2B3F58" transform="translate(224,723)"/>
<path d="M0 0 C1.2380014 3.57644848 0.74926071 6.33694766 0 10 C5.445 9.505 5.445 9.505 11 9 C7.83759418 11.10827055 6.49342531 11.33817465 2.8125 11.625 C1.91144531 11.69976563 1.01039063 11.77453125 0.08203125 11.8515625 C-0.60503906 11.90054688 -1.29210937 11.94953125 -2 12 C-1.85904936 10.3745692 -1.71207913 8.74965949 -1.5625 7.125 C-1.48128906 6.22007812 -1.40007812 5.31515625 -1.31640625 4.3828125 C-1 2 -1 2 0 0 Z " fill="#8E9AA5" transform="translate(301,646)"/>
<path d="M0 0 C10.625 1.75 10.625 1.75 14 4 C9.97007218 3.44687265 5.97977076 2.8441938 2 2 C2 4.97 2 7.94 2 11 C1.67 11 1.34 11 1 11 C0.67 7.37 0.34 3.74 0 0 Z " fill="#7B8A98" transform="translate(243,324)"/>
<path d="M0 0 C0.33 1.32 0.66 2.64 1 4 C0.50628906 4.40992188 0.01257813 4.81984375 -0.49609375 5.2421875 C-1.13675781 5.78101563 -1.77742188 6.31984375 -2.4375 6.875 C-3.07558594 7.40867187 -3.71367187 7.94234375 -4.37109375 8.4921875 C-6.10805004 9.9222757 -6.10805004 9.9222757 -7 12 C-7.66 11.67 -8.32 11.34 -9 11 C-6.03 7.37 -3.06 3.74 0 0 Z " fill="#C5CDD4" transform="translate(375,532)"/>
<path d="M0 0 C-1.61992165 0.86375896 -3.24611861 1.71575854 -4.875 2.5625 C-6.23238281 3.27599609 -6.23238281 3.27599609 -7.6171875 4.00390625 C-8.40351563 4.33261719 -9.18984375 4.66132812 -10 5 C-10.66 4.67 -11.32 4.34 -12 4 C-8.7542983 -1.12479216 -5.44546337 -3.07535723 0 0 Z " fill="#455A73" transform="translate(462,658)"/>
<path d="M0 0 C0 3.34419152 -0.47519394 4.06840321 -2.375 6.6875 C-2.81585937 7.31011719 -3.25671875 7.93273437 -3.7109375 8.57421875 C-4.13632812 9.04472656 -4.56171875 9.51523437 -5 10 C-5.66 10 -6.32 10 -7 10 C-7 10.66 -7 11.32 -7 12 C-7.66 11.67 -8.32 11.34 -9 11 C-6.83515595 7.01212939 -4.28817903 4.11511698 -1 1 C-0.67 0.67 -0.34 0.34 0 0 Z " fill="#5F7082" transform="translate(574,366)"/>
<path d="M0 0 C4.3177458 0.50797009 8.03302114 1.19682779 12 3 C12 3.33 12 3.66 12 4 C8.37 3.67 4.74 3.34 1 3 C0.67 2.01 0.34 1.02 0 0 Z " fill="#687889" transform="translate(374,349)"/>
<path d="M0 0 C0.66 0.33 1.32 0.66 2 1 C-0.88341534 5.21422242 -3.04303419 6.76075855 -8 8 C-5.33333333 5.33333333 -2.66666667 2.66666667 0 0 Z " fill="#C0C8CF" transform="translate(518,621)"/>
<path d="M0 0 C1 2 1 2 0.51171875 4.12890625 C0.23972656 4.93199219 -0.03226562 5.73507812 -0.3125 6.5625 C-0.57675781 7.36816406 -0.84101563 8.17382812 -1.11328125 9.00390625 C-2 11 -2 11 -4 12 C-3.33501617 7.61110675 -1.81242323 4.0188515 0 0 Z " fill="#B8C1C9" transform="translate(334,597)"/>
<path d="M0 0 C-0.39803561 2.88575819 -0.79009069 3.82189513 -3.0625 5.75 C-3.701875 6.1625 -4.34125 6.575 -5 7 C-5.33 6.01 -5.66 5.02 -6 4 C-2.25 0 -2.25 0 0 0 Z " fill="#3C516B" transform="translate(397,508)"/>
<path d="M0 0 C2.97 0.495 2.97 0.495 6 1 C5.67 1.99 5.34 2.98 5 4 C3.0625 3.6875 3.0625 3.6875 1 3 C0.67 2.01 0.34 1.02 0 0 Z " fill="#2B415C" transform="translate(457,653)"/>
<path d="M0 0 C3 2 3 2 3.6875 4.625 C3.8421875 5.800625 3.8421875 5.800625 4 7 C3.01 7 2.02 7 1 7 C0.31292445 4.50935112 0 2.62113708 0 0 Z " fill="#2C425C" transform="translate(287,393)"/>
<path d="M0 0 C1.875 0.1875 1.875 0.1875 4 1 C5.25 3.5625 5.25 3.5625 6 6 C4 5 2 4 0 3 C0 2.01 0 1.02 0 0 Z " fill="#2A3D56" transform="translate(422,393)"/>
<path d="M0 0 C0.66 0.33 1.32 0.66 2 1 C0.1875 4 0.1875 4 -2 7 C-2.99 7 -3.98 7 -5 7 C-3.35 4.69 -1.7 2.38 0 0 Z " fill="#5C6D82" transform="translate(272,642)"/>
<path d="M0 0 C0.33 0 0.66 0 1 0 C1.33 2.31 1.66 4.62 2 7 C1.01 7.33 0.02 7.66 -1 8 C-1.33 8.99 -1.66 9.98 -2 11 C-1 3.57142857 -1 3.57142857 0 0 Z " fill="#768594" transform="translate(305,628)"/>
<path d="M0 0 C0.66 1.32 1.32 2.64 2 4 C0.68 5.65 -0.64 7.3 -2 9 C-1.125 1.125 -1.125 1.125 0 0 Z " fill="#ACB6BF" transform="translate(325,619)"/>
<path d="M0 0 C0.66 0.33 1.32 0.66 2 1 C-0.12055614 4.1808342 -1.63050557 5.31525278 -5 7 C-5.66 6.67 -6.32 6.34 -7 6 C-4.69 4.02 -2.38 2.04 0 0 Z " fill="#647486" transform="translate(459,578)"/>
</svg>
