<svg xmlns="http://www.w3.org/2000/svg" viewBox="0 0 512 512">
  <defs>
    <linearGradient id="bg" x1="0" y1="0" x2="0.7" y2="1">
      <stop offset="0%" stop-color="#345F87"/>
      <stop offset="100%" stop-color="#2C4A6E"/>
    </linearGradient>
  </defs>

  <!-- Background -->
  <rect width="512" height="512" rx="96" fill="url(#bg)"/>

  <!-- Dove — clean geometric style like Twitter bird -->
  <g transform="translate(256, 256)">
    <path d="
      M-20 60
      C-50 50 -75 30 -85 5
      C-95 -20 -80 -45 -55 -50
      C-40 -53 -28 -45 -22 -35

      C-18 -55 -5 -80 15 -95
      C35 -110 60 -108 80 -95
      C65 -85 45 -68 30 -58

      C50 -70 68 -85 80 -92
      C62 -72 42 -52 28 -42

      C20 -32 15 -18 10 0
      C18 -2 35 5 55 15
      C40 12 22 10 10 8

      C12 25 15 45 8 58
      C2 65 -8 65 -20 60
      Z
    " fill="white"/>
  </g>
</svg>
