<?xml version="1.0" standalone="no"?>
<svg version="1.0" xmlns="http://www.w3.org/2000/svg"
 width="600.000000pt" height="677.000000pt" viewBox="0 0 600.000000 677.000000"
 preserveAspectRatio="xMidYMid meet">
<g transform="translate(0.000000,677.000000) scale(0.100000,-0.100000)"
fill="#2C4A6E" stroke="none">
<path d="M3938 4663 c7 -3 16 -2 19 1 4 3 -2 6 -13 5 -11 0 -14 -3 -6 -6z"/>
<path d="M3665 4636 c-72 -19 -99 -31 -163 -75 -67 -45 -118 -104 -154 -176
-40 -81 -51 -136 -46 -237 4 -78 13 -119 55 -248 28 -85 60 -196 71 -245 l19
-91 -97 1 c-89 0 -97 2 -89 17 14 27 10 168 -6 233 -45 173 -158 308 -334 398
-170 88 -307 124 -625 167 -125 17 -263 38 -305 46 -92 19 -248 62 -273 75
-24 13 -23 8 6 -131 27 -127 75 -269 128 -375 l34 -70 -130 0 c-117 0 -436
-23 -436 -32 0 -2 22 -25 48 -51 110 -107 164 -189 294 -440 129 -251 166
-308 252 -394 106 -106 217 -169 350 -199 l55 -12 -30 -56 c-47 -86 -114 -248
-139 -336 -30 -107 -59 -229 -55 -233 1 -2 85 18 186 43 443 112 813 267 999
417 182 148 286 379 293 656 1 51 5 92 8 92 12 0 82 -77 106 -117 58 -100 68
-267 24 -401 -96 -291 -321 -511 -676 -657 -175 -73 -463 -166 -740 -240 -77
-20 -160 -43 -185 -50 -58 -18 -417 -105 -430 -105 -5 0 47 70 115 155 133
165 154 207 138 273 -5 19 -13 37 -18 38 -6 2 -25 -16 -42 -40 -18 -23 -42
-54 -54 -67 -45 -51 -440 -539 -436 -539 4 0 134 28 247 54 201 45 665 164
848 217 383 109 661 215 842 318 41 24 90 52 109 63 268 153 488 419 574 696
44 138 51 197 50 377 -1 169 -2 181 -54 435 -24 117 0 220 73 313 44 56 158
107 253 114 45 4 75 10 75 17 0 31 -62 136 -102 172 -43 40 -137 84 -179 84
-12 0 -44 21 -72 46 -110 98 -247 134 -382 100z m133 -26 c2 0 1 4 -2 9 -12
19 139 -28 189 -59 17 -10 46 -35 64 -54 19 -20 42 -36 50 -36 14 0 14 -2 1
-11 -11 -7 -5 -8 23 -4 23 3 37 1 37 -6 0 -6 7 -8 16 -5 14 6 62 -18 76 -38 4
-6 1 -17 -5 -25 -9 -11 -6 -11 12 1 23 16 25 16 42 -7 11 -13 19 -33 19 -44 0
-12 6 -21 16 -21 8 0 13 -4 9 -9 -3 -5 2 -16 10 -24 21 -22 19 -30 -6 -22 -15
5 -19 4 -15 -4 5 -7 -6 -12 -31 -13 -21 -1 -51 -3 -68 -3 -17 -1 -29 -7 -27
-13 1 -7 -4 -12 -11 -12 -7 0 -29 -9 -49 -19 -19 -11 -39 -17 -44 -13 -4 4 -3
1 1 -7 6 -11 4 -13 -8 -8 -11 4 -14 2 -11 -8 5 -13 -32 -42 -48 -37 -4 1 -5
-4 -2 -12 7 -18 -25 -48 -45 -42 -14 5 -14 4 1 -6 16 -11 16 -14 -2 -44 -16
-24 -20 -50 -21 -120 0 -108 3 -147 13 -155 4 -3 17 -73 28 -157 21 -159 26
-397 9 -408 -6 -3 -8 -12 -5 -20 8 -20 -14 -117 -29 -129 -6 -5 -10 -16 -7
-23 2 -8 0 -24 -6 -35 -6 -12 -18 -46 -27 -75 -9 -28 -21 -50 -26 -46 -5 3 -9
-4 -9 -15 0 -26 -32 -81 -47 -81 -7 0 -10 -6 -7 -14 8 -21 -65 -118 -83 -111
-11 3 -13 1 -10 -10 4 -8 1 -20 -6 -27 -7 -7 -29 -32 -49 -55 -20 -23 -39 -39
-42 -35 -3 3 -6 0 -6 -7 0 -8 -7 -11 -15 -7 -13 5 -17 0 -14 -20 1 -13 -55
-52 -68 -47 -8 3 -11 0 -8 -8 6 -15 -51 -53 -66 -44 -5 4 -6 -2 -2 -12 6 -16
5 -16 -10 -4 -15 12 -17 12 -11 -2 4 -12 -2 -20 -23 -29 -15 -7 -44 -24 -62
-38 -19 -14 -32 -19 -27 -13 5 9 2 11 -8 7 -9 -3 -14 -9 -11 -13 5 -8 -98 -61
-119 -61 -8 0 -17 -7 -20 -16 -4 -10 -14 -14 -26 -11 -11 3 -18 2 -15 -2 5 -8
-58 -41 -79 -41 -7 0 -34 -11 -60 -25 -25 -13 -50 -25 -54 -26 -4 -1 -17 -5
-30 -10 -13 -5 -37 -9 -53 -9 -18 0 -28 -4 -24 -10 3 -5 -2 -10 -12 -10 -10 0
-37 -9 -58 -20 -22 -12 -60 -23 -84 -26 -24 -3 -53 -11 -65 -19 -11 -7 -38
-17 -59 -20 -20 -4 -40 -11 -42 -16 -5 -7 -54 -16 -120 -22 -11 -1 -23 -6 -26
-10 -9 -13 -81 -27 -104 -21 -14 4 -16 3 -7 -4 9 -6 -12 -15 -65 -27 -43 -10
-82 -22 -88 -26 -5 -5 -21 -9 -36 -9 -14 0 -46 -7 -70 -16 -24 -8 -66 -18 -94
-20 -27 -3 -54 -9 -60 -14 -5 -4 -28 -11 -50 -14 -35 -6 -70 -16 -125 -34 -8
-2 -31 -6 -50 -8 -19 -2 -45 -6 -57 -9 -15 -3 -23 -1 -24 7 0 7 -4 3 -9 -8 -6
-15 -19 -23 -44 -26 -21 -2 -36 0 -36 7 0 5 -5 3 -11 -5 -9 -13 -10 -13 -7 0
3 8 14 19 26 25 12 5 22 15 22 22 0 7 5 13 11 13 5 0 8 4 5 9 -3 4 3 16 14 26
11 10 20 24 20 31 0 7 13 23 30 36 16 12 30 27 30 34 0 7 12 19 28 26 16 9 26
20 24 31 -2 10 4 20 13 23 8 3 15 12 15 19 0 20 20 29 33 16 8 -8 8 -11 0 -11
-6 0 -18 -12 -27 -28 l-17 -27 20 23 c11 13 25 21 30 17 10 -6 8 16 -5 49 -5
12 -4 17 3 13 5 -3 16 5 23 18 7 14 19 25 27 25 7 0 13 9 13 19 0 11 23 43 50
71 28 28 50 56 50 62 0 6 6 6 15 -2 14 -12 14 -15 0 -30 -10 -11 -12 -19 -6
-21 6 -2 8 -14 5 -27 -5 -19 -9 -20 -22 -10 -13 11 -14 10 -8 -8 7 -22 -27
-71 -46 -66 -5 1 -7 -1 -4 -6 3 -5 -14 -32 -37 -60 -70 -85 -103 -126 -120
-153 -17 -25 -16 -26 8 -39 20 -11 34 -11 72 -1 27 7 56 12 66 12 9 0 17 5 17
11 0 7 5 6 14 -1 11 -9 15 -9 18 0 2 7 17 14 34 15 31 4 50 8 74 17 34 13 186
50 203 49 9 0 17 4 17 9 0 5 6 9 13 7 6 -1 29 4 49 11 20 6 47 13 60 15 13 1
50 11 83 21 104 31 165 43 159 31 -3 -6 1 -3 9 7 17 20 135 60 184 61 17 1 29
4 26 9 -4 6 5 9 23 6 4 0 10 4 13 9 8 12 112 47 130 43 7 -1 10 2 6 8 -3 6 -2
11 4 11 5 0 13 -4 16 -10 3 -5 11 -10 17 -10 7 0 7 4 -1 13 -8 11 3 18 57 37
37 13 76 29 87 37 25 17 49 17 39 1 -4 -8 -3 -10 2 -5 5 5 9 14 9 20 0 12 56
46 67 40 4 -2 18 8 32 22 15 15 42 33 60 40 19 8 38 19 41 25 4 6 12 7 18 4 7
-4 9 -4 5 0 -12 14 15 35 30 24 9 -8 11 -7 6 6 -5 12 -1 19 13 22 11 3 26 17
33 30 10 18 16 21 27 12 10 -8 12 -7 8 4 -4 9 4 26 19 41 14 15 26 31 26 37 0
14 18 13 23 -2 2 -7 2 -2 0 11 -3 17 0 22 10 18 7 -3 14 1 14 9 0 22 35 94 47
94 6 0 5 -5 -2 -12 -7 -7 -12 -17 -12 -22 0 -6 7 -3 15 7 7 11 11 26 8 35 -5
11 -3 13 7 7 8 -5 11 -4 6 3 -10 17 26 93 42 87 7 -3 10 0 7 6 -4 6 -4 27 0
46 5 28 9 33 16 22 7 -9 7 -5 3 15 -5 20 -4 27 4 22 8 -5 10 -1 5 9 -3 10 0
21 8 26 11 7 11 9 1 9 -7 0 -11 4 -7 10 3 5 5 55 5 112 -1 57 -1 113 -1 126 1
13 -3 21 -8 18 -5 -3 -14 8 -20 24 -8 24 -7 29 2 25 7 -4 5 -1 -3 7 -8 7 -24
26 -34 42 -18 28 -18 30 0 43 10 7 13 13 8 13 -6 0 -16 -6 -23 -12 -10 -11
-18 -7 -41 18 -63 71 -90 49 -96 -75 -6 -132 -17 -203 -40 -275 -23 -72 -75
-176 -86 -170 -4 3 -8 -2 -8 -11 0 -27 -31 -65 -54 -65 -14 0 -17 -3 -8 -8 9
-6 4 -16 -17 -36 -16 -16 -34 -25 -40 -22 -6 4 -11 0 -11 -9 0 -9 5 -13 10
-10 6 3 10 4 10 2 0 -2 -18 -17 -40 -32 -38 -27 -41 -27 -67 -11 l-28 17 24
-21 c13 -11 22 -22 20 -23 -66 -47 -149 -88 -161 -81 -6 4 -8 3 -4 -4 7 -11
-80 -49 -103 -44 -7 2 -10 -1 -6 -7 3 -7 -2 -11 -14 -11 -10 0 -21 -5 -23 -11
-5 -14 -266 -109 -301 -109 -16 0 -26 -4 -23 -8 2 -4 -16 -14 -42 -21 -26 -8
-73 -22 -104 -32 -65 -22 -80 -23 -58 -8 12 9 12 10 -3 5 -10 -3 -23 -6 -28
-6 -6 0 -8 -4 -4 -9 3 -6 -16 -13 -42 -17 -27 -4 -65 -13 -87 -20 -62 -22 -66
-20 -65 34 1 26 6 58 11 72 6 14 11 33 13 43 7 33 30 92 38 98 5 3 8 9 7 13
-2 14 13 76 19 76 4 0 13 15 19 34 7 19 19 37 27 40 8 3 12 12 9 20 -3 8 9 41
26 74 36 69 31 101 -14 93 -5 -1 -5 6 -2 16 6 14 5 16 -5 6 -16 -16 -33 -17
-23 -1 4 7 3 8 -4 4 -12 -7 -113 23 -154 45 -12 7 -27 14 -33 14 -5 1 -9 7 -7
14 1 7 -2 10 -8 6 -9 -6 -21 1 -58 36 -9 9 -25 19 -35 22 -10 4 -23 19 -30 34
-7 16 -19 28 -27 28 -8 0 -23 17 -33 38 -10 20 -23 37 -28 37 -5 0 -9 5 -9 11
0 7 -8 18 -18 26 -9 8 -12 12 -5 9 6 -4 15 -1 19 5 4 7 3 9 -4 5 -18 -11 -44
24 -38 53 3 14 3 20 0 14 -8 -18 -23 0 -53 62 -13 28 -30 58 -38 67 -8 9 -12
22 -8 27 3 6 2 11 -4 11 -6 0 -13 11 -17 25 -3 14 -10 25 -15 25 -5 0 -5 7 -2
17 4 10 2 14 -4 10 -6 -4 -8 4 -6 21 4 21 2 24 -6 12 -9 -12 -11 -11 -11 8 0
13 -4 21 -10 17 -5 -3 -15 13 -21 36 -7 22 -19 43 -26 46 -7 3 -10 9 -7 14 3
5 9 7 14 4 4 -3 6 4 3 15 -3 11 -10 20 -15 20 -6 0 -8 -7 -4 -15 10 -26 -8
-16 -31 18 -13 18 -23 41 -23 50 0 9 -7 17 -15 17 -8 0 -22 12 -32 28 -10 15
-22 30 -28 34 -6 5 -6 8 0 8 6 1 0 5 -13 11 -13 5 -20 13 -17 19 4 6 1 9 -6 8
-6 -2 -13 2 -16 8 -2 7 6 11 19 10 13 -1 34 2 48 7 14 5 115 10 225 11 110 1
206 5 213 10 15 9 8 71 -10 93 -5 7 -6 18 -2 24 4 8 3 9 -4 5 -8 -5 -12 1 -12
18 0 14 -6 29 -13 33 -8 4 -24 40 -37 78 -13 39 -27 79 -32 90 -9 21 -12 36
-29 120 -15 80 -16 104 -5 97 6 -4 22 -8 36 -10 14 -2 54 -12 90 -22 36 -11
80 -20 98 -22 18 -1 31 -7 28 -13 -2 -6 22 -11 62 -12 36 -2 92 -7 124 -13 32
-6 68 -12 81 -14 12 -2 62 -7 110 -11 65 -6 90 -12 97 -24 7 -11 9 -12 10 -2
0 11 3 11 15 1 8 -7 22 -10 30 -6 23 9 215 -40 227 -58 4 -6 8 -7 8 -2 0 5 7
3 15 -4 8 -6 26 -13 40 -15 15 -1 40 -12 56 -24 16 -12 34 -19 39 -16 6 3 10
-1 10 -9 0 -10 6 -13 17 -9 10 4 14 2 10 -4 -4 -6 0 -14 9 -17 9 -4 13 -2 8 5
-3 6 5 3 20 -6 14 -10 26 -21 26 -25 0 -4 13 -13 29 -20 34 -14 95 -85 86
-100 -4 -6 -1 -9 6 -8 14 3 76 -100 85 -141 3 -14 8 -33 11 -41 12 -31 14 -47
17 -130 2 -47 -1 -95 -5 -106 -10 -27 26 -49 67 -40 16 3 55 2 87 -2 80 -12
85 -3 63 96 -9 42 -19 85 -21 95 -2 10 -7 27 -10 37 -8 24 -16 58 -22 94 -4
22 -3 27 7 21 9 -5 11 -4 6 4 -4 6 -12 9 -17 5 -23 -14 -67 153 -69 266 -2 88
9 172 21 164 5 -3 7 1 4 8 -6 15 30 78 45 78 5 0 6 8 3 17 -5 12 -2 15 10 10
11 -4 14 -2 11 7 -7 17 24 48 38 40 7 -5 8 -2 4 5 -5 8 0 14 13 18 11 3 18 10
14 16 -4 6 3 8 19 5 18 -3 24 0 25 15 2 25 2 24 64 48 75 28 129 37 164 27 16
-4 31 -8 33 -8z m-2138 -2684 c0 -3 -4 -8 -10 -11 -5 -3 -10 -1 -10 4 0 6 5
11 10 11 6 0 10 -2 10 -4z"/>
<path d="M3650 4590 c0 -5 5 -10 10 -10 6 0 10 5 10 10 0 6 -4 10 -10 10 -5 0
-10 -4 -10 -10z"/>
<path d="M3830 4590 c-13 -8 -12 -10 3 -10 9 0 17 5 17 10 0 12 -1 12 -20 0z"/>
<path d="M3705 4580 c3 -5 16 -10 28 -9 21 0 21 1 2 9 -28 12 -37 12 -30 0z"/>
<path d="M3663 4551 c-18 -5 -40 -14 -48 -21 -9 -7 -25 -13 -38 -14 -12 -1
-21 -7 -19 -14 2 -12 -6 -15 -43 -14 -18 1 -18 0 -2 -5 18 -4 18 -6 1 -24 -9
-10 -21 -16 -27 -12 -5 3 -7 1 -4 -4 4 -6 -3 -19 -15 -29 -20 -19 -21 -19 -14
6 6 19 5 21 -3 10 -6 -8 -8 -23 -5 -33 4 -12 -2 -20 -18 -26 -13 -6 -18 -10
-12 -10 8 -1 8 -11 0 -35 -6 -19 -13 -31 -16 -26 -3 4 -6 -17 -7 -48 -1 -31
-7 -58 -13 -60 -12 -4 -14 -32 -1 -32 5 0 10 -25 10 -56 0 -32 4 -60 10 -64
13 -7 17 -48 6 -72 -4 -11 -3 -18 4 -18 6 0 11 8 12 18 0 9 7 -3 16 -28 8 -25
14 -55 14 -68 -1 -15 3 -21 11 -16 7 5 9 -1 6 -19 -3 -15 -1 -24 3 -21 5 3 9
1 9 -5 0 -5 3 -17 7 -27 4 -12 3 -15 -5 -10 -9 6 -9 1 0 -18 6 -14 15 -26 20
-26 5 0 7 -4 4 -9 -3 -4 -1 -23 5 -42 5 -19 10 -50 10 -69 1 -19 5 -40 10 -46
5 -7 9 -16 8 -20 -6 -21 26 -62 56 -74 19 -7 31 -18 28 -23 -4 -6 -1 -7 6 -2
16 9 83 -53 74 -69 -3 -6 -3 -8 2 -4 4 4 14 3 22 -3 10 -9 11 -15 2 -26 -9
-10 -9 -12 2 -8 15 6 43 -50 33 -66 -3 -5 2 -6 10 -3 16 6 17 3 21 -49 1 -16
6 -32 11 -35 21 -16 21 -257 0 -291 -9 -15 11 -51 29 -51 8 0 15 5 15 11 0 5
5 7 12 3 7 -4 8 -3 4 4 -4 7 -4 17 0 24 5 8 10 6 16 -8 7 -16 8 -15 4 5 -3 13
2 40 10 60 18 40 41 120 50 166 3 17 9 31 13 33 5 1 7 34 5 73 -2 49 0 68 8
63 6 -4 8 -3 5 3 -4 6 -8 80 -9 166 -2 86 -6 149 -9 140 -3 -9 -11 19 -18 63
-7 43 -18 97 -24 119 -12 40 -14 153 -3 208 10 53 28 97 37 91 5 -3 6 -10 3
-16 -4 -7 -2 -8 4 -4 9 5 9 13 2 27 -9 15 -7 19 5 19 9 0 14 4 11 9 -9 13 4
42 15 35 5 -3 9 -2 8 3 -3 19 2 33 12 33 6 0 22 14 36 30 13 17 34 30 44 30
11 0 18 4 15 9 -7 11 38 31 70 31 35 0 81 44 66 63 -7 8 -8 18 -4 22 4 5 1 5
-5 1 -7 -4 -13 -3 -13 2 0 4 -16 14 -35 22 -19 7 -31 18 -28 23 3 6 1 7 -6 3
-18 -11 -72 3 -64 17 4 7 0 6 -10 -1 -20 -17 -38 -7 -31 16 5 14 2 13 -11 -3
-16 -20 -17 -20 -13 0 2 11 -2 20 -7 20 -19 0 -57 42 -46 50 6 3 15 4 19 1 4
-2 8 4 8 14 0 19 -1 19 -21 0 -24 -22 -44 -27 -27 -7 8 10 6 13 -8 13 -10 0
-16 -4 -14 -8 3 -4 -11 1 -31 13 -39 24 -174 35 -232 20z m159 -22 c74 -16
119 -41 164 -92 33 -37 47 -45 89 -51 50 -7 155 -51 155 -65 0 -4 -26 -15 -57
-25 -114 -34 -219 -135 -263 -254 -35 -93 -37 -185 -4 -342 24 -120 27 -157
28 -340 1 -140 -3 -222 -12 -260 -16 -65 -71 -220 -85 -238 -18 -23 -18 -5 -1
54 25 86 16 248 -18 331 -48 114 -113 193 -204 244 -50 29 -51 31 -58 86 -9
78 -48 226 -98 368 -37 108 -41 130 -42 220 -1 88 2 107 26 157 58 125 178
208 310 217 9 1 41 -4 70 -10z"/>
<path d="M3712 3476 c7 -8 15 -12 17 -11 5 6 -10 25 -20 25 -5 0 -4 -6 3 -14z"/>
<path d="M4016 4515 c4 -8 11 -15 16 -15 6 0 5 6 -2 15 -7 8 -14 15 -16 15 -2
0 -1 -7 2 -15z"/>
<path d="M4045 4480 c3 -5 8 -10 11 -10 2 0 4 5 4 10 0 6 -5 10 -11 10 -5 0
-7 -4 -4 -10z"/>
<path d="M3390 4390 c0 -5 5 -10 11 -10 5 0 7 5 4 10 -3 6 -8 10 -11 10 -2 0
-4 -4 -4 -10z"/>
<path d="M2408 4313 c7 -3 16 -2 19 1 4 3 -2 6 -13 5 -11 0 -14 -3 -6 -6z"/>
<path d="M1914 4292 c-16 -10 -13 -74 4 -94 8 -10 12 -24 8 -33 -3 -9 -2 -13
4 -10 6 3 10 -2 10 -12 0 -10 16 -49 35 -88 19 -38 35 -81 36 -95 0 -20 2 -22
7 -7 6 14 13 7 35 -35 15 -29 27 -63 27 -75 0 -14 6 -23 15 -23 8 0 22 -12 32
-26 10 -14 28 -36 40 -49 12 -12 19 -26 16 -29 -4 -3 2 -6 11 -6 10 0 16 -6
14 -12 -4 -12 14 -38 27 -38 3 0 24 -16 45 -36 22 -20 49 -43 60 -51 12 -8 19
-21 16 -28 -3 -8 2 -11 15 -8 11 3 21 -1 25 -11 3 -9 10 -13 15 -10 5 3 12 -2
15 -11 4 -9 24 -23 46 -32 29 -12 36 -18 26 -25 -9 -6 -6 -7 8 -3 13 3 28 0
37 -9 8 -8 17 -12 21 -9 3 3 8 -2 12 -11 3 -9 13 -16 22 -16 9 0 47 -10 84
-22 52 -17 65 -24 51 -30 -10 -4 1 -4 24 -1 29 4 48 1 60 -8 15 -12 16 -12 10
3 -4 12 1 19 16 24 12 5 25 7 29 6 5 -1 7 4 5 11 -1 7 7 11 21 10 13 -2 22 3
22 11 0 13 21 26 43 26 4 0 16 9 28 21 12 12 29 19 40 16 10 -3 17 -2 14 3 -2
4 15 13 38 20 44 12 82 48 82 79 0 9 5 15 10 14 13 -2 10 86 -6 151 -7 28 -12
56 -12 63 0 7 -3 10 -6 8 -4 -2 -15 17 -25 41 -10 24 -22 44 -27 44 -5 0 -9 7
-9 15 0 8 -4 15 -10 15 -5 0 -10 7 -10 16 0 9 -5 12 -12 8 -8 -5 -9 -2 -4 11
6 16 4 16 -11 4 -15 -12 -16 -12 -10 3 4 12 2 15 -7 12 -8 -3 -23 6 -34 20
-11 14 -24 26 -29 26 -6 0 -18 9 -27 19 -10 11 -29 22 -42 25 -14 4 -22 10
-19 15 2 5 -2 12 -11 15 -8 3 -12 2 -9 -4 3 -5 -7 -3 -22 5 -71 37 -133 62
-188 78 -156 44 -161 46 -135 48 14 1 -20 6 -75 10 -55 4 -118 10 -140 13 -22
3 -56 7 -75 9 -19 3 -48 7 -65 10 -16 2 -59 8 -95 13 -55 7 -61 9 -35 15 22 5
13 7 -35 8 -36 0 -70 -3 -76 -7z m226 -52 c371 -48 507 -81 675 -165 226 -113
337 -250 334 -413 -2 -102 -9 -124 -44 -135 -59 -19 -158 -68 -228 -114 l-72
-46 -65 17 c-165 44 -366 169 -495 309 -115 124 -241 334 -299 495 -32 91 -32
93 2 82 15 -5 101 -19 192 -30z"/>
<path d="M2379 3613 c-13 -16 -12 -17 4 -4 9 7 17 15 17 17 0 8 -8 3 -21 -13z"/>
<path d="M1780 4278 c0 -9 5 -20 10 -23 13 -8 13 5 0 25 -8 13 -10 13 -10 -2z"/>
<path d="M4130 4250 c-18 -12 -2 -12 25 0 13 6 15 9 5 9 -8 0 -22 -4 -30 -9z"/>
<path d="M3050 4086 c0 -2 8 -10 18 -17 15 -13 16 -12 3 4 -13 16 -21 21 -21
13z"/>
<path d="M3133 3975 c0 -8 4 -12 9 -9 5 3 6 10 3 15 -9 13 -12 11 -12 -6z"/>
<path d="M3106 3957 c3 -10 9 -15 12 -12 3 3 0 11 -7 18 -10 9 -11 8 -5 -6z"/>
<path d="M2010 3910 c6 -11 13 -20 16 -20 2 0 0 9 -6 20 -6 11 -13 20 -16 20
-2 0 0 -9 6 -20z"/>
<path d="M3206 3807 c3 -10 9 -15 12 -12 3 3 0 11 -7 18 -10 9 -11 8 -5 -6z"/>
<path d="M3471 3664 c0 -11 3 -14 6 -6 3 7 2 16 -1 19 -3 4 -6 -2 -5 -13z"/>
<path d="M3951 3634 c0 -11 3 -14 6 -6 3 7 2 16 -1 19 -3 4 -6 -2 -5 -13z"/>
<path d="M3213 3466 c-29 -7 -58 -9 -65 -5 -7 5 -17 9 -23 9 -5 0 -4 -4 4 -9
10 -6 -4 -17 -50 -37 -35 -16 -70 -28 -77 -26 -7 2 -15 -4 -18 -12 -8 -20 -87
-66 -113 -66 -14 0 -19 -5 -15 -15 4 -10 -5 -21 -26 -32 -18 -10 -48 -35 -68
-55 -19 -21 -41 -38 -49 -38 -7 0 -13 -6 -13 -14 0 -24 -22 -30 -37 -11 -7 11
-13 14 -13 9 0 -6 5 -15 11 -21 8 -8 6 -16 -8 -30 -11 -11 -27 -30 -36 -44
-15 -20 -19 -22 -28 -9 -9 12 -10 12 -5 -4 5 -13 2 -17 -8 -13 -10 4 -13 1
-10 -7 3 -7 -11 -34 -30 -60 -20 -25 -36 -50 -36 -55 0 -5 -4 -11 -8 -13 -11
-4 -50 -61 -77 -111 -34 -65 -49 -92 -56 -97 -3 -3 -14 -29 -24 -58 -15 -41
-21 -49 -26 -35 -7 17 -8 16 -9 -2 -3 -46 -29 -124 -75 -231 -8 -18 -11 -42
-8 -54 5 -18 12 -21 47 -19 22 1 46 6 51 9 21 14 144 42 160 36 9 -3 14 -2 11
3 -6 10 46 31 75 31 11 0 19 5 19 11 0 6 9 9 20 6 12 -3 17 -1 14 5 -3 5 0 8
7 6 14 -3 55 11 125 43 22 11 48 19 57 19 9 0 18 4 22 10 3 5 12 7 20 3 8 -3
15 0 15 6 0 6 8 11 18 11 9 0 28 9 42 20 14 11 32 20 40 21 8 0 38 14 65 30
28 16 62 34 77 40 16 6 25 16 21 22 -3 6 -1 7 5 3 6 -4 19 0 29 9 41 36 87 69
80 58 -6 -9 -3 -11 7 -7 8 3 17 12 20 20 4 10 1 13 -7 8 -6 -3 2 7 18 24 17
16 32 28 34 26 6 -5 36 39 33 49 -1 4 3 7 9 7 5 0 7 5 4 10 -3 6 -3 10 2 10 4
0 17 18 27 41 11 22 24 43 29 46 6 4 7 1 2 -7 -5 -9 -4 -11 4 -6 6 4 9 12 5
17 -6 10 22 95 39 117 12 15 14 35 23 218 7 150 0 184 -36 184 -10 0 -21 4
-24 9 -8 13 -155 11 -213 -3z m216 -22 c41 -9 48 -46 33 -195 -38 -384 -206
-572 -678 -759 -149 -60 -531 -177 -541 -166 -9 8 73 223 128 332 92 189 186
321 324 459 66 67 150 142 187 168 100 71 241 138 333 160 31 7 179 8 214 1z"/>
<path d="M2670 3051 c0 -6 4 -13 10 -16 6 -3 7 1 4 9 -7 18 -14 21 -14 7z"/>
<path d="M2647 3026 c-4 -10 -1 -13 8 -9 8 3 12 9 9 14 -7 12 -11 11 -17 -5z"/>
<path d="M2456 2745 c-3 -9 -2 -24 2 -32 8 -13 10 -13 16 2 3 9 2 24 -2 32 -8
13 -10 13 -16 -2z"/>
<path d="M3639 3421 c7 -5 11 -13 8 -18 -3 -5 3 -9 13 -9 18 0 18 2 3 18 -9
10 -21 18 -27 18 -6 0 -5 -4 3 -9z"/>
<path d="M1700 3386 c0 -2 7 -7 16 -10 8 -3 12 -2 9 4 -6 10 -25 14 -25 6z"/>
<path d="M3756 3237 c3 -10 9 -15 12 -12 3 3 0 11 -7 18 -10 9 -11 8 -5 -6z"/>
<path d="M3960 3100 c0 -5 5 -10 11 -10 5 0 7 5 4 10 -3 6 -8 10 -11 10 -2 0
-4 -4 -4 -10z"/>
<path d="M1884 3082 c4 -3 14 -7 22 -8 9 -1 13 0 10 4 -4 3 -14 7 -22 8 -9 1
-13 0 -10 -4z"/>
<path d="M1960 3000 c0 -5 5 -10 11 -10 5 0 7 5 4 10 -3 6 -8 10 -11 10 -2 0
-4 -4 -4 -10z"/>
<path d="M2505 2970 c-3 -5 -1 -10 4 -10 6 0 11 5 11 10 0 6 -2 10 -4 10 -3 0
-8 -4 -11 -10z"/>
<path d="M3401 2894 c0 -11 3 -14 6 -6 3 7 2 16 -1 19 -3 4 -6 -2 -5 -13z"/>
<path d="M2128 2893 c7 -3 16 -2 19 1 4 3 -2 6 -13 5 -11 0 -14 -3 -6 -6z"/>
<path d="M3384 2860 c0 -13 4 -16 10 -10 7 7 7 13 0 20 -6 6 -10 3 -10 -10z"/>
<path d="M2306 2703 c-6 -14 -5 -15 5 -6 7 7 10 15 7 18 -3 3 -9 -2 -12 -12z"/>
<path d="M3030 2559 c0 -5 5 -7 10 -4 6 3 10 8 10 11 0 2 -4 4 -10 4 -5 0 -10
-5 -10 -11z"/>
<path d="M3685 2540 c-3 -6 1 -7 9 -4 18 7 21 14 7 14 -6 0 -13 -4 -16 -10z"/>
<path d="M2740 2429 c0 -5 5 -7 10 -4 6 3 10 8 10 11 0 2 -4 4 -10 4 -5 0 -10
-5 -10 -11z"/>
<path d="M2348 2303 c7 -3 16 -2 19 1 4 3 -2 6 -13 5 -11 0 -14 -3 -6 -6z"/>
<path d="M3313 2285 c0 -8 4 -12 9 -9 5 3 6 10 3 15 -9 13 -12 11 -12 -6z"/>
<path d="M2278 2273 c7 -3 16 -2 19 1 4 3 -2 6 -13 5 -11 0 -14 -3 -6 -6z"/>
<path d="M1850 2159 c0 -5 5 -7 10 -4 6 3 10 8 10 11 0 2 -4 4 -10 4 -5 0 -10
-5 -10 -11z"/>
<path d="M1795 2061 c-3 -5 -2 -12 3 -15 5 -3 9 1 9 9 0 17 -3 19 -12 6z"/>
<path d="M1715 1939 c-4 -6 -5 -12 -2 -15 2 -3 7 2 10 11 7 17 1 20 -8 4z"/>
<path d="M2150 1860 c-9 -6 -10 -10 -3 -10 6 0 15 5 18 10 8 12 4 12 -15 0z"/>
<path d="M1560 1804 c0 -8 5 -12 10 -9 6 4 8 11 5 16 -9 14 -15 11 -15 -7z"/>
<path d="M1818 1773 c6 -2 18 -2 25 0 6 3 1 5 -13 5 -14 0 -19 -2 -12 -5z"/>
<path d="M1510 1710 c0 -5 5 -10 11 -10 5 0 7 5 4 10 -3 6 -8 10 -11 10 -2 0
-4 -4 -4 -10z"/>
<path d="M3367 4519 c7 -7 15 -10 18 -7 3 3 -2 9 -12 12 -14 6 -15 5 -6 -5z"/>
<path d="M4248 4153 c6 -2 18 -2 25 0 6 3 1 5 -13 5 -14 0 -19 -2 -12 -5z"/>
<path d="M1327 3819 c7 -7 15 -10 18 -7 3 3 -2 9 -12 12 -14 6 -15 5 -6 -5z"/>
<path d="M1916 2928 c3 -5 10 -6 15 -3 13 9 11 12 -6 12 -8 0 -12 -4 -9 -9z"/>
<path d="M3824 2550 c0 -13 4 -16 10 -10 7 7 7 13 0 20 -6 6 -10 3 -10 -10z"/>
<path d="M3446 2522 c-3 -5 1 -9 9 -9 8 0 12 4 9 9 -3 4 -7 8 -9 8 -2 0 -6 -4
-9 -8z"/>
<path d="M1975 2279 c-4 -6 -5 -12 -2 -15 2 -3 7 2 10 11 7 17 1 20 -8 4z"/>
<path d="M1697 2115 c3 -8 9 -12 14 -9 12 7 11 11 -5 17 -10 4 -13 1 -9 -8z"/>
<path d="M1603 2022 c-1 -22 0 -24 9 -8 6 10 6 22 2 26 -5 5 -10 -3 -11 -18z"/>
</g>
</svg>
